# Blender 3.4.1
# www.blender.org
mtllib CPU.mtl
#o Cube.006
v -3.403255 0.028995 3.550671
v -3.403255 0.915432 3.550671
v -3.340913 0.210881 3.078731
v -3.277387 0.518651 3.078731
v -2.585398 0.028995 3.550671
v -2.585398 0.915432 3.550671
v -2.475469 0.038384 3.145876
v -2.475469 0.672638 3.145876
v -3.459952 -0.028761 3.553604
v -3.459952 0.973187 3.553604
v -2.475469 0.672638 3.486459
v -2.475469 0.038384 3.486459
v -3.425394 0.005798 3.553604
v -3.425394 0.938628 3.553604
v -2.563260 0.938628 3.553604
v -2.563260 0.005798 3.553604
v -3.042478 0.518651 3.078731
v -2.759773 0.210881 3.078731
v -2.528701 -0.028761 3.553604
v -2.528701 0.973187 3.553604
v -2.454081 0.703295 3.115220
v -2.454081 0.007727 3.115220
v -2.454081 0.007727 3.517116
v -2.454081 0.703295 3.517116
v -3.459952 0.973187 3.078731
v -3.459952 -0.028761 3.078731
v -2.528701 -0.028761 3.078731
v -2.528701 0.973187 3.078731
v -3.277387 0.773282 3.078731
v -3.381479 0.048969 3.078731
v -2.607174 0.048969 3.078731
v -3.042478 0.773282 3.078731
v -3.340913 0.254916 3.356652
v -3.327602 0.241605 3.369963
v -3.337014 0.251017 3.366064
v -3.327602 0.224192 3.369963
v -3.340913 0.210881 3.356652
v -3.337014 0.214780 3.366064
v -2.773084 0.224192 3.369963
v -2.759773 0.210881 3.356652
v -2.763672 0.214780 3.366064
v -2.759773 0.254916 3.356652
v -2.773084 0.241605 3.369963
v -2.763672 0.251017 3.366064
v -3.381479 0.895457 3.078731
v -2.607174 0.895457 3.078731
v -3.340913 0.254916 3.078731
v -2.759773 0.254916 3.078731
v -3.236802 0.732697 3.334691
v -3.277387 0.773282 3.294106
v -3.265500 0.761395 3.322804
v -3.042478 0.773282 3.294106
v -3.083064 0.732697 3.334691
v -3.054365 0.761395 3.322804
v -3.277387 0.518651 3.294106
v -3.236802 0.559237 3.334691
v -3.265500 0.530538 3.322804
v -3.083064 0.559237 3.334691
v -3.042478 0.518651 3.294106
v -3.054365 0.530538 3.322804
v -2.475469 0.681466 3.137048
v -2.475469 0.029556 3.137048
v -2.475469 0.029556 3.495287
v -2.475469 0.681466 3.495287
vn -1.0000 -0.0000 -0.0000
vn -0.0000 1.0000 -0.0000
vn 1.0000 -0.0000 -0.0000
vn -0.0000 -1.0000 -0.0000
vn -0.0000 -0.0000 1.0000
vn 0.1313 -0.0000 0.9913
vn -0.1313 -0.0000 0.9913
vn -0.0000 0.1254 0.9921
vn -0.0000 -0.1254 0.9921
vn 0.4393 -0.0000 -0.8983
vn 0.4393 -0.8983 -0.0000
vn 0.9638 0.2665 -0.0000
vn 0.4393 -0.0000 0.8983
vn 0.7143 -0.0000 0.6999
vn 0.7143 0.6999 -0.0000
vn 0.7143 -0.6999 -0.0000
vn 0.7143 -0.0000 -0.6999
vn -0.0000 -0.0000 -1.0000
vn 0.3827 -0.0000 -0.9239
vn 0.9239 -0.0000 -0.3827
vn -0.0000 0.9239 -0.3827
vn -0.0000 0.3827 -0.9239
vn -0.0000 -0.9239 -0.3827
vn -0.0000 -0.3827 -0.9239
vn -0.9239 -0.0000 -0.3827
vn -0.3827 -0.0000 -0.9239
vt 0.385999 0.988166
vt 0.614001 0.988166
vt 0.420172 0.298602
vt 0.582919 0.317380
vt 0.385999 0.761834
vt 0.614001 0.761834
vt 0.394320 0.535349
vt 0.605680 0.535349
vt 0.375000 0.000000
vt 0.125000 0.750000
vt 0.375000 1.000000
vt 0.625000 0.000000
vt 0.875000 0.750000
vt 0.625000 1.000000
vt 0.605680 0.714651
vt 0.394321 0.714651
vt 0.383623 0.990722
vt 0.616377 0.990722
vt 0.616377 0.759278
vt 0.383623 0.759278
vt 0.582919 0.432047
vt 0.420172 0.451398
vt 0.375000 0.750000
vt 0.625000 0.750000
vt 0.615896 0.519210
vt 0.384104 0.519210
vt 0.384104 0.730791
vt 0.615896 0.730790
vt 0.875000 0.500000
vt 0.625000 0.250000
vt 0.125000 0.500000
vt 0.375000 0.250000
vt 0.375000 0.500000
vt 0.625000 0.500000
vt 0.600338 0.298638
vt 0.396570 0.273208
vt 0.396570 0.476792
vt 0.600338 0.450788
vt 0.579828 0.298602
vt 0.531567 0.302101
vt 0.572760 0.299114
vt 0.468433 0.302101
vt 0.420172 0.298602
vt 0.427240 0.299114
vt 0.468433 0.447899
vt 0.420172 0.451398
vt 0.427240 0.450886
vt 0.579828 0.451398
vt 0.531567 0.447899
vt 0.572760 0.450886
vt 0.603430 0.273208
vt 0.603430 0.476792
vt 0.579828 0.298602
vt 0.579828 0.451398
vt 0.597562 0.326405
vt 0.600338 0.298638
vt 0.599932 0.302925
vt 0.600338 0.450788
vt 0.597562 0.423022
vt 0.599932 0.446501
vt 0.582919 0.317380
vt 0.585696 0.335712
vt 0.583326 0.319844
vt 0.585696 0.413715
vt 0.582919 0.432047
vt 0.583326 0.429583
vt 0.608622 0.530701
vt 0.391378 0.530701
vt 0.391379 0.719299
vt 0.608622 0.719299
s 0
usemtl Material.006
f 9/9/1 10/12/1 25/30/1 26/32/1
f 18/22/2 3/3/2 37/43/2 40/46/2
f 7/7/3 8/8/3 11/15/3 12/16/3
f 26/31/4 27/33/4 19/23/4 9/10/4
f 28/34/2 25/29/2 10/13/2 20/24/2
f 13/17/5 14/18/5 10/14/5 9/11/5
f 15/19/5 16/20/5 19/23/5 20/24/5
f 16/20/5 13/17/5 9/11/5 19/23/5
f 14/18/5 15/19/5 20/24/5 10/14/5
f 1/1/6 2/2/6 14/18/6 13/17/6
f 6/6/7 5/5/7 16/20/7 15/19/7
f 5/5/8 1/1/8 13/17/8 16/20/8
f 2/2/9 6/6/9 15/19/9 14/18/9
f 21/25/10 22/26/10 27/33/10 28/34/10
f 22/26/11 23/27/11 19/23/11 27/33/11
f 24/28/12 21/25/12 28/34/12 20/24/12
f 23/27/13 24/28/13 20/24/13 19/23/13
f 61/67/14 62/68/14 22/26/14 21/25/14
f 62/68/15 63/69/15 23/27/15 22/26/15
f 64/70/16 61/67/16 21/25/16 24/28/16
f 63/69/17 64/70/17 24/28/17 23/27/17
f 45/51/18 30/36/18 26/32/18 25/30/18
f 30/36/18 31/37/18 27/33/18 26/32/18
f 46/52/18 45/51/18 25/30/18 28/34/18
f 31/37/18 46/52/18 28/34/18 27/33/18
f 47/53/18 3/3/18 30/36/18 45/51/18
f 3/3/18 18/22/18 31/37/18 30/36/18
f 17/21/2 4/4/2 55/61/2 59/65/2
f 18/22/18 48/54/18 46/52/18 31/37/18
f 47/53/4 48/54/4 42/48/4 33/39/4
f 48/54/1 18/22/1 40/46/1 42/48/1
f 34/40/19 36/42/19 38/44/19 35/41/19
f 35/41/20 38/44/20 37/43/20 33/39/20
f 40/46/21 37/43/21 38/44/21 41/47/21
f 41/47/22 38/44/22 36/42/22 39/45/22
f 33/39/23 42/48/23 44/50/23 35/41/23
f 42/48/25 40/46/25 41/47/25 44/50/25
f 44/50/26 41/47/26 39/45/26 43/49/26
f 3/3/3 47/53/3 33/39/3 37/43/3
f 32/38/18 29/35/18 45/51/18 46/52/18
f 4/4/18 17/21/18 48/54/18 47/53/18
f 29/35/18 4/4/18 47/53/18 45/51/18
f 17/21/18 32/38/18 46/52/18 48/54/18
f 4/4/3 29/35/3 50/56/3 55/61/3
f 32/38/1 17/21/1 59/65/1 52/58/1
f 50/56/23 52/58/23 54/60/23 51/57/23
f 51/57/24 54/60/24 53/59/24 49/55/24
f 56/62/22 58/64/22 60/66/22 57/63/22
f 57/63/21 60/66/21 59/65/21 55/61/21
f 49/55/19 56/62/19 57/63/19 51/57/19
f 51/57/20 57/63/20 55/61/20 50/56/20
f 52/58/25 59/65/25 60/66/25 54/60/25
f 54/60/26 60/66/26 58/64/26 53/59/26
f 29/35/4 32/38/4 52/58/4 50/56/4
usemtl glass
f 1/1/5 5/5/5 6/6/5 2/2/5
usemtl Material.007
f 36/42/18 34/40/18 43/49/18 39/45/18
f 35/41/24 44/50/24 43/49/24 34/40/24
f 58/64/18 56/62/18 49/55/18 53/59/18
usemtl Material.008
f 8/8/3 7/7/3 62/68/3 61/67/3
f 7/7/3 12/16/3 63/69/3 62/68/3
f 11/15/3 8/8/3 61/67/3 64/70/3
f 12/16/3 11/15/3 64/70/3 63/69/3
