# Blender 3.4.1
# www.blender.org
mtllib desktopTable.mtl
#o Cube.004
v -4.040764 1.346267 3.600896
v -4.078906 1.473369 3.615725
v -2.578094 1.346267 3.600896
v -2.539953 1.473369 3.615725
v -4.040764 1.346267 3.553604
v -2.539953 1.473369 3.538776
v -4.078906 1.473369 3.538776
v -2.578094 1.346267 3.553604
v -4.078906 1.383323 3.538776
v -4.078906 1.383323 3.615725
v -2.539953 1.383323 3.615725
v -2.539953 1.383323 3.538776
v -4.040764 0.008295 3.553604
v -4.040764 0.008295 3.600896
v -2.578094 0.008295 3.600896
v -2.578094 0.008295 3.553604
v -4.072312 1.383323 3.600896
v -2.546546 1.383323 3.600896
v -2.546546 1.383323 3.553604
v -4.072312 1.383323 3.553604
v -4.072312 -0.028761 3.600896
v -2.546546 -0.028761 3.600896
v -2.546546 -0.028761 3.553604
v -4.072312 -0.028761 3.553604
v -4.078906 1.428346 3.615725
v -2.539953 1.428346 3.615725
v -4.078906 1.428346 3.538776
v -2.539953 1.428346 3.538776
v -4.106936 1.428346 3.643754
v -4.106936 1.473369 3.643754
v -2.511923 1.473369 3.538776
v -2.511923 1.473369 3.643754
v -4.106936 1.473369 3.538776
v -2.511923 1.428346 3.643754
v -4.106936 1.428346 3.538776
v -2.511923 1.428346 3.538776
v -4.040764 1.346267 -0.610942
v -4.078906 1.473369 -0.625771
v -2.578094 1.346267 -0.610942
v -2.539953 1.473369 -0.625771
v -4.078906 1.383323 1.494977
v -4.078906 1.473369 1.494977
v -2.539953 1.383323 1.494977
v -2.539953 1.473369 1.494977
v -4.040764 1.346267 -0.563650
v -2.539953 1.473369 -0.548822
v -4.078906 1.473369 -0.548822
v -2.578094 1.346267 -0.563650
v -4.078906 1.383323 -0.548822
v -4.078906 1.383323 -0.625771
v -2.539953 1.383323 -0.625771
v -2.539953 1.383323 -0.548822
v -4.040764 0.008295 -0.563650
v -4.040764 0.008295 -0.610942
v -2.578094 0.008295 -0.610942
v -2.578094 0.008295 -0.563650
v -4.072312 1.383323 -0.610942
v -2.546546 1.383323 -0.610942
v -2.546546 1.383323 -0.563650
v -4.072312 1.383323 -0.563650
v -4.072312 -0.028761 -0.610942
v -2.546546 -0.028761 -0.610942
v -2.546546 -0.028761 -0.563650
v -4.072312 -0.028761 -0.563650
v -4.078906 1.428346 -0.625771
v -2.539953 1.428346 -0.625771
v -2.539953 1.428346 1.494977
v -4.078906 1.428346 1.494977
v -4.078906 1.428346 -0.548822
v -2.539953 1.428346 -0.548822
v -4.106936 1.428346 -0.653800
v -4.106936 1.473369 -0.653800
v -2.511923 1.473369 -0.548822
v -2.511923 1.473369 -0.653800
v -4.106936 1.473369 -0.548822
v -4.106936 1.473369 1.494977
v -2.511923 1.473369 1.494977
v -2.511923 1.428346 -0.653800
v -2.511923 1.428346 1.494977
v -4.106936 1.428346 1.494977
v -4.106936 1.428346 -0.548822
v -2.511923 1.428346 -0.548822
vn -0.0000 -1.0000 -0.0000
vn -0.0000 1.0000 -0.0000
vn 1.0000 -0.0000 -0.0000
vn -1.0000 -0.0000 -0.0000
vn -0.0000 -0.0000 1.0000
vn -0.0000 -0.0000 -1.0000
vt 0.141691 0.748384
vt 0.875000 0.750000
vt 0.358309 0.748384
vt 0.625000 0.750000
vt 0.141691 0.743231
vt 0.625000 0.741616
vt 0.875000 0.741616
vt 0.358309 0.743231
vt 0.125000 0.741616
vt 0.375000 0.008384
vt 0.125000 0.750000
vt 0.375000 0.000000
vt 0.375000 1.000000
vt 0.375000 0.750000
vt 0.375000 0.741616
vt 0.141691 0.743231
vt 0.141691 0.748384
vt 0.358309 0.748384
vt 0.358309 0.743232
vt 0.126071 0.748384
vt 0.373929 0.748384
vt 0.373929 0.743232
vt 0.126071 0.743231
vt 0.126071 0.748384
vt 0.373929 0.748384
vt 0.373929 0.743232
vt 0.126071 0.743231
vt 0.500000 1.000000
vt 0.500000 0.000000
vt 0.500000 0.750000
vt 0.500000 0.008384
vt 0.500000 0.741616
vt 0.500000 1.000000
vt 0.500000 0.000000
vt 0.625000 1.000000
vt 0.625000 0.000000
vt 0.875000 0.750000
vt 0.625000 0.741616
vt 0.625000 0.750000
vt 0.625000 0.008384
vt 0.875000 0.741616
vt 0.500000 0.750000
vt 0.500000 0.008384
vt 0.500000 0.741616
vt 0.141691 0.748384
vt 0.875000 0.750000
vt 0.358309 0.748384
vt 0.625000 0.750000
vt 0.125000 0.625000
vt 0.375000 0.125000
vt 0.875000 0.625000
vt 0.375000 0.625000
vt 0.625000 0.625000
vt 0.141691 0.743231
vt 0.625000 0.741616
vt 0.875000 0.741616
vt 0.358309 0.743231
vt 0.125000 0.741616
vt 0.375000 0.008384
vt 0.125000 0.750000
vt 0.375000 0.000000
vt 0.375000 1.000000
vt 0.375000 0.750000
vt 0.375000 0.741616
vt 0.141691 0.743231
vt 0.141691 0.748384
vt 0.358309 0.748384
vt 0.358309 0.743232
vt 0.126071 0.748384
vt 0.373929 0.748384
vt 0.373929 0.743232
vt 0.126071 0.743231
vt 0.126071 0.748384
vt 0.373929 0.748384
vt 0.373929 0.743232
vt 0.126071 0.743231
vt 0.500000 1.000000
vt 0.500000 0.000000
vt 0.500000 0.750000
vt 0.500000 0.625000
vt 0.500000 0.125000
vt 0.500000 0.008384
vt 0.500000 0.741616
vt 0.500000 1.000000
vt 0.500000 0.000000
vt 0.625000 1.000000
vt 0.625000 0.000000
vt 0.875000 0.750000
vt 0.625000 0.741616
vt 0.625000 0.750000
vt 0.625000 0.008384
vt 0.875000 0.741616
vt 0.625000 0.125000
vt 0.875000 0.625000
vt 0.625000 0.625000
vt 0.500000 0.750000
vt 0.500000 0.625000
vt 0.500000 0.125000
vt 0.500000 0.008384
vt 0.500000 0.741616
s 0
usemtl Material.013
f 28/32/1 67/80/1 79/97/1 36/44/1
f 1/1/1 5/5/1 8/8/1 3/3/1
f 25/28/1 26/30/1 34/42/1 29/33/1
f 41/49/1 43/52/1 12/15/1 9/9/1
f 68/81/1 27/31/1 35/43/1 80/98/1
f 20/23/1 17/20/1 10/11/1 9/9/1
f 17/20/1 18/21/1 11/14/1 10/11/1
f 18/21/1 19/22/1 12/15/1 11/14/1
f 19/22/1 20/23/1 9/9/1 12/15/1
f 24/27/1 23/26/1 22/25/1 21/24/1
f 19/22/3 18/21/3 22/25/3 23/26/3
f 17/20/4 20/23/4 24/27/4 21/24/4
f 14/17/3 13/16/3 5/5/3 1/1/3
f 1/1/5 3/3/5 18/21/5 17/20/5
f 8/8/6 5/5/6 20/23/6 19/22/6
f 15/18/5 14/17/5 21/24/5 22/25/5
f 13/16/6 16/19/6 23/26/6 24/27/6
f 14/17/5 1/1/5 17/20/5 21/24/5
f 3/3/5 15/18/5 22/25/5 18/21/5
f 16/19/6 8/8/6 19/22/6 23/26/6
f 5/5/6 13/16/6 24/27/6 20/23/6
f 14/17/2 15/18/2 16/19/2 13/16/2
f 3/3/4 8/8/4 16/19/4 15/18/4
f 43/52/3 67/80/3 28/32/3 12/15/3
f 10/12/4 25/29/4 27/31/4 9/10/4
f 9/10/4 27/31/4 68/81/4 41/50/4
f 11/14/5 26/30/5 25/28/5 10/13/5
f 12/15/3 28/32/3 26/30/3 11/14/3
f 26/30/1 28/32/1 36/44/1 34/42/1
f 27/31/1 25/29/1 29/34/1 35/43/1
f 70/83/1 82/100/1 79/97/1 67/80/1
f 37/45/1 39/47/1 48/57/1 45/54/1
f 65/77/1 71/84/1 78/96/1 66/79/1
f 41/49/1 49/58/1 52/64/1 43/52/1
f 68/81/1 80/98/1 81/99/1 69/82/1
f 60/72/1 49/58/1 50/60/1 57/69/1
f 57/69/1 50/60/1 51/63/1 58/70/1
f 58/70/1 51/63/1 52/64/1 59/71/1
f 59/71/1 52/64/1 49/58/1 60/72/1
f 64/76/1 61/73/1 62/74/1 63/75/1
f 59/71/3 63/75/3 62/74/3 58/70/3
f 57/69/4 61/73/4 64/76/4 60/72/4
f 54/66/3 37/45/3 45/54/3 53/65/3
f 37/45/6 57/69/6 58/70/6 39/47/6
f 48/57/5 59/71/5 60/72/5 45/54/5
f 55/67/6 62/74/6 61/73/6 54/66/6
f 53/65/5 64/76/5 63/75/5 56/68/5
f 54/66/6 61/73/6 57/69/6 37/45/6
f 39/47/6 58/70/6 62/74/6 55/67/6
f 56/68/5 63/75/5 59/71/5 48/57/5
f 45/54/5 60/72/5 64/76/5 53/65/5
f 54/66/2 53/65/2 56/68/2 55/67/2
f 39/47/4 55/67/4 56/68/4 48/57/4
f 43/52/3 52/64/3 70/83/3 67/80/3
f 50/61/4 49/59/4 69/82/4 65/78/4
f 49/59/4 41/50/4 68/81/4 69/82/4
f 51/63/6 50/62/6 65/77/6 66/79/6
f 52/64/3 51/63/3 66/79/3 70/83/3
f 66/79/1 78/96/1 82/100/1 70/83/1
f 69/82/1 81/99/1 71/85/1 65/78/1
usemtl Material.002
f 2/2/2 7/7/2 33/41/2 30/37/2
f 6/6/2 7/7/2 2/2/2 4/4/2
f 44/53/2 6/6/2 31/38/2 77/95/2
f 44/53/2 42/51/2 7/7/2 6/6/2
f 36/44/3 31/38/3 32/39/3 34/42/3
f 34/42/5 32/39/5 30/35/5 29/33/5
f 35/43/4 33/40/4 76/93/4 80/98/4
f 29/34/4 30/36/4 33/40/4 35/43/4
f 79/97/3 77/95/3 31/38/3 36/44/3
f 4/4/2 2/2/2 30/37/2 32/39/2
f 6/6/2 4/4/2 32/39/2 31/38/2
f 7/7/2 42/51/2 76/94/2 33/41/2
f 38/46/2 72/88/2 75/92/2 47/56/2
f 46/55/2 40/48/2 38/46/2 47/56/2
f 44/53/2 77/95/2 73/89/2 46/55/2
f 44/53/2 46/55/2 47/56/2 42/51/2
f 82/100/3 78/96/3 74/90/3 73/89/3
f 78/96/6 71/84/6 72/86/6 74/90/6
f 81/99/4 80/98/4 76/93/4 75/91/4
f 71/85/4 81/99/4 75/91/4 72/87/4
f 79/97/3 82/100/3 73/89/3 77/95/3
f 40/48/2 74/90/2 72/88/2 38/46/2
f 46/55/2 73/89/2 74/90/2 40/48/2
f 47/56/2 75/92/2 76/94/2 42/51/2
