# Blender 3.4.1
# www.blender.org
mtllib door.mtl
#o Cube
v 1.019027 0.714580 -0.044471
v 1.019027 -1.285420 -0.044471
v 0.041768 -1.277730 -0.084923
v 0.041768 0.708132 -0.044471
v 0.041768 -1.291868 -0.044471
v 0.815757 -1.283821 -0.084923
v 0.620305 -1.282283 -0.084923
v 0.229402 -1.279207 -0.084923
v 0.865757 0.713239 -0.044471
v 0.554829 0.711949 -0.044471
v 0.490330 0.710660 -0.044471
v 0.179402 0.709370 -0.044471
v 0.179402 -1.290630 -0.044471
v 0.490330 -1.289340 -0.044471
v 0.554829 -1.288051 -0.044471
v 0.865757 -1.286761 -0.044471
v 0.041768 -1.189945 -0.044471
v 0.041768 -0.340904 -0.044471
v 0.041768 -0.280904 -0.044471
v 0.041768 0.560055 -0.044471
v 1.019027 0.566503 -0.044471
v 1.019027 -0.279937 -0.044471
v 1.019027 -0.339937 -0.044471
v 1.019027 -1.183497 -0.044471
v 0.229402 0.297716 -0.084923
v 0.865757 0.565162 -0.044471
v 0.865757 -0.280138 -0.044471
v 0.865757 -0.340138 -0.044471
v 0.865757 -1.184838 -0.044471
v 0.554829 0.563872 -0.044471
v 0.554829 -0.280332 -0.044471
v 0.554829 -0.340332 -0.044471
v 0.554829 -1.186128 -0.044471
v 0.490330 0.562583 -0.044471
v 0.490330 -0.280525 -0.044471
v 0.490330 -0.340525 -0.044471
v 0.490330 -1.187417 -0.044471
v 0.179402 0.561293 -0.044471
v 0.179402 -0.280719 -0.044471
v 0.179402 -0.340719 -0.044471
v 0.179402 -1.188707 -0.044471
v 0.041768 -1.277730 -0.084923
v 0.041768 -1.291868 -0.084923
v 0.229402 -1.279207 -0.084923
v 0.815757 -1.283821 -0.084923
v 0.620305 -1.282283 -0.084923
v 0.179402 -1.290630 -0.084923
v 0.554829 -1.288051 -0.084923
v 0.865757 -1.286761 -0.084923
v 0.229402 0.297716 -0.084923
v 0.490330 -0.280525 -0.044471
v 0.179402 0.561293 -0.044471
v 0.179402 -0.280719 -0.044471
v 0.179402 -0.340719 -0.044471
v 0.229402 0.297716 -0.084923
v 0.490330 -0.280525 -0.059471
v 0.179402 0.561293 -0.059471
v 0.179402 -0.280719 -0.059471
v 0.179402 -0.340719 -0.059471
v 0.490330 -0.280525 -0.084923
v 0.490330 0.562583 -0.044471
v 0.490330 -0.280525 -0.044471
v 0.179402 0.561293 -0.044471
v 0.179402 -0.280719 -0.044471
v 0.229402 0.297716 -0.084923
v 0.490330 0.562583 -0.059471
v 0.179402 -0.280719 -0.084923
v 0.490330 -0.280525 -0.084923
v 0.179402 0.561293 -0.084923
v 0.189140 0.294834 -0.045867
vn 0.0090 -1.0000 -0.0000
vn -0.0000 -0.0000 1.0000
vn -0.0000 -0.0000 -1.0000
vn 0.2227 -0.9749 -0.0000
vn -0.0000 1.0000 -0.0000
vn -0.0878 0.9961 -0.0000
vn -1.0000 -0.0000 -0.0000
vn 0.0041 -1.0000 -0.0000
vn 0.0587 0.9983 -0.0000
vn -0.0006 1.0000 -0.0000
vn 1.0000 -0.0000 -0.0000
vn 0.9645 0.2642 -0.0000
vn -0.0428 -0.0213 0.9989
vt 0.625000 0.653208
vt 0.375000 0.653208
vt 0.000000 0.000000
vt 0.626116 1.000000
vt 0.376116 1.000000
vt 0.000000 0.000000
vt 0.375000 0.448000
vt 0.000000 0.000000
vt 0.375000 0.398000
vt 0.000000 0.000000
vt 0.000000 0.000000
vt 0.625232 0.725341
vt 0.625455 0.794699
vt 0.625679 0.864057
vt 0.625902 0.933416
vt 0.375902 0.933416
vt 0.000000 0.000000
vt 0.375679 0.864058
vt 0.000000 0.000000
vt 0.375456 0.794699
vt 0.375232 0.725341
vt 0.000000 0.000000
vt 0.423232 1.000000
vt 0.473232 1.000000
vt 0.523232 1.000000
vt 0.573232 1.000000
vt 0.572115 0.653208
vt 0.522115 0.653208
vt 0.472115 0.653208
vt 0.422115 0.653208
vt 0.572348 0.725341
vt 0.522348 0.725341
vt 0.472348 0.725341
vt 0.422348 0.725341
vt 0.572571 0.794699
vt 0.000000 0.000000
vt 0.522571 0.794699
vt 0.472571 0.794699
vt 0.422571 0.794699
vt 0.572794 0.864058
vt 0.522794 0.864057
vt 0.472794 0.864058
vt 0.422794 0.864058
vt 0.573017 0.933416
vt 0.523017 0.933416
vt 0.473017 0.933416
vt 0.423017 0.933416
vt 0.125000 0.500000
vt 0.000000 0.000000
vt 0.376116 1.000000
vt 0.125000 0.653208
vt 0.000000 0.000000
vt 0.173000 0.500000
vt 0.000000 0.000000
vt 0.323000 0.500000
vt 0.375000 0.448000
vt 0.000000 0.000000
vt 0.273000 0.500000
vt 0.375000 0.398000
vt 0.000000 0.000000
vt 0.375902 0.933416
vt 0.173000 0.653208
vt 0.000000 0.000000
vt 0.273000 0.653208
vt 0.000000 0.000000
vt 0.375456 0.794699
vt 0.323000 0.653208
vt 0.375232 0.725341
vt 0.000000 0.000000
vt 0.522794 0.864057
vt 0.573017 0.933416
vt 0.523017 0.933416
vt 0.473017 0.933416
vt 0.000000 0.000000
vt 0.522794 0.864057
vt 0.000000 0.000000
vt 0.573017 0.933416
vt 0.000000 0.000000
vt 0.523017 0.933416
vt 0.473017 0.933416
vt 0.522794 0.864057
vt 0.000000 0.000000
vt 0.000000 0.000000
vt 0.000000 0.000000
vt 0.000000 0.000000
vt 0.000000 0.000000
vt 0.523017 0.933416
vt 0.000000 0.000000
vt 0.000000 0.000000
s 0
usemtl Material
f 13/16/1 5/5/1 43/50/1 47/61/1
f 38/44/2 12/15/2 4/4/2 20/26/2
f 21/27/2 1/1/2 9/12/2 26/31/2
f 26/31/2 9/12/2 10/13/2 30/35/2
f 30/35/2 10/13/2 11/14/2 34/40/2
f 34/40/2 11/14/2 12/15/2 38/44/2
f 14/18/2 37/43/2 41/47/2 13/16/2
f 36/42/2 35/41/2 39/45/2 40/46/2
f 15/20/2 33/39/2 37/43/2 14/18/2
f 33/39/2 32/38/2 36/42/2 37/43/2
f 32/38/2 31/37/2 35/41/2 36/42/2
f 31/37/2 30/35/2 34/40/2 35/41/2
f 16/21/2 29/34/2 33/39/2 15/20/2
f 28/33/2 27/32/2 31/37/2 32/38/2
f 2/2/2 24/30/2 29/34/2 16/21/2
f 24/30/2 23/29/2 28/33/2 29/34/2
f 23/29/2 22/28/2 27/32/2 28/33/2
f 22/28/2 21/27/2 26/31/2 27/32/2
f 13/16/2 41/47/2 17/23/2 5/5/2
f 41/47/2 40/46/2 18/24/2 17/23/2
f 40/46/2 39/45/2 19/25/2 18/24/2
f 39/45/2 38/44/2 20/26/2 19/25/2
f 42/48/3 44/53/3 47/62/3 43/51/3
f 46/58/3 45/55/3 49/67/3 48/64/3
f 8/11/4 13/17/4 47/63/4 44/54/4
f 7/9/5 6/7/5 45/56/5 46/59/5
f 15/19/6 7/10/6 46/60/6 48/65/6
f 5/6/7 3/3/7 42/49/7 43/52/7
f 16/21/8 15/20/8 48/66/8 49/68/8
f 6/8/9 16/22/9 49/69/9 45/57/9
f 3/3/5 8/11/5 44/54/5 42/49/5
f 39/45/5 35/41/5 51/70/5 53/72/5
f 39/45/5 40/46/5 54/73/5 53/72/5
f 38/44/5 39/45/5 53/72/5 52/71/5
f 53/72/10 51/70/10 56/75/10 58/79/10
f 53/72/11 54/73/11 59/80/11 58/79/11
f 52/71/11 53/72/11 58/79/11 57/77/11
f 58/79/10 56/75/10 60/81/10 67/87/10
f 68/88/12 56/76/12 58/78/12 67/86/12 63/84/12 64/85/12 62/83/12
f 61/82/13 63/84/13 70/89/13 67/87/13 58/79/13 64/85/13 68/88/13 56/76/13 62/83/13 31/36/13
f 27/32/2 26/31/2 30/35/2
f 30/35/2 31/37/2 27/32/2
f 29/34/2 28/33/2 32/38/2 33/39/2
f 37/43/2 36/42/2 54/74/2 41/47/2
l 25 50
l 61 66
l 69 63
l 65 70
l 50 55
#o Cube.001
v 0.118019 -0.199270 -0.030457
v 0.118019 0.000730 -0.030457
v 0.118019 -0.199270 -0.040457
v 0.118019 0.000730 -0.040457
v 0.168019 -0.199270 -0.030457
v 0.168019 0.000730 -0.030457
v 0.168019 -0.199270 -0.040457
v 0.168019 0.000730 -0.040457
vn -1.0000 -0.0000 -0.0000
vn -0.0000 -0.0000 -1.0000
vn 1.0000 -0.0000 -0.0000
vn -0.0000 -0.0000 1.0000
vn -0.0000 -1.0000 -0.0000
vn -0.0000 1.0000 -0.0000
vt 0.375000 0.000000
vt 0.375000 1.000000
vt 0.125000 0.750000
vt 0.625000 0.000000
vt 0.625000 1.000000
vt 0.875000 0.750000
vt 0.375000 0.250000
vt 0.125000 0.500000
vt 0.625000 0.250000
vt 0.875000 0.500000
vt 0.375000 0.750000
vt 0.625000 0.750000
vt 0.375000 0.500000
vt 0.625000 0.500000
s 0
f 71/90/14 72/93/14 74/98/14 73/96/14
f 73/96/15 74/98/15 78/103/15 77/102/15
f 77/102/16 78/103/16 76/101/16 75/100/16
f 75/100/17 76/101/17 72/94/17 71/91/17
f 73/97/18 77/102/18 75/100/18 71/92/18
f 78/103/19 74/99/19 72/95/19 76/101/19
#o Cube.002
v 0.146283 -0.077342 -0.009790
v 0.146283 -0.062892 -0.009790
v 0.146283 -0.077342 -0.029790
v 0.146283 -0.062892 -0.029790
v 0.166283 -0.077342 -0.009790
v 0.166283 -0.062892 -0.009790
v 0.166283 -0.077342 -0.029790
v 0.166283 -0.062892 -0.029790
v 0.146283 -0.077342 -0.007790
v 0.146283 -0.062892 -0.007790
v 0.146283 -0.077342 -0.027790
v 0.146283 -0.062892 -0.027790
v 0.166283 -0.077342 -0.007790
v 0.166283 -0.062892 -0.007790
v 0.166283 -0.077342 -0.027790
v 0.166283 -0.062892 -0.027790
v 0.146283 -0.062892 -0.007790
v 0.166283 -0.077342 -0.007790
v 0.166283 -0.062892 -0.007790
v 0.146283 -0.077342 -0.005790
v 0.146283 -0.062892 -0.005790
v 0.166283 -0.077342 -0.005790
v 0.166283 -0.062892 -0.005790
v 0.251283 -0.062892 -0.029790
v 0.251283 -0.077342 -0.029790
v 0.251283 -0.077342 -0.009790
v 0.251283 -0.062892 -0.009790
v 0.251283 -0.062892 -0.009790
v 0.251283 -0.077342 -0.009790
v 0.251283 -0.062892 -0.007790
v 0.251283 -0.077342 -0.007790
v 0.251283 -0.062892 -0.007790
v 0.251283 -0.077342 -0.007790
v 0.251283 -0.062892 -0.005790
v 0.251283 -0.077342 -0.005790
vn 1.0000 -0.0000 -0.0000
vn -0.0000 -0.0000 1.0000
vn -0.0000 -1.0000 -0.0000
vn -0.0000 -0.0000 -1.0000
vn -0.0000 1.0000 -0.0000
vn -1.0000 -0.0000 -0.0000
vt 0.375000 0.000000
vt 0.375000 1.000000
vt 0.125000 0.750000
vt 0.625000 0.000000
vt 0.875000 0.750000
vt 0.625000 1.000000
vt 0.375000 0.250000
vt 0.125000 0.500000
vt 0.625000 0.250000
vt 0.875000 0.500000
vt 0.375000 0.750000
vt 0.000000 0.000000
vt 0.625000 0.750000
vt 0.375000 0.500000
vt 0.625000 0.500000
vt 0.375000 0.000000
vt 0.125000 0.750000
vt 0.875000 0.750000
vt 0.625000 0.000000
vt 0.375000 0.250000
vt 0.125000 0.500000
vt 0.625000 0.250000
vt 0.875000 0.500000
vt 0.375000 0.750000
vt 0.625000 0.750000
vt 0.375000 0.500000
vt 0.625000 0.500000
vt 0.625000 1.000000
vt 0.000000 0.000000
vt 0.625000 0.750000
vt 0.000000 0.000000
vt 0.375000 1.000000
vt 0.375000 0.000000
vt 0.125000 0.750000
vt 0.875000 0.750000
vt 0.625000 1.000000
vt 0.625000 0.000000
vt 0.375000 0.750000
vt 0.625000 0.750000
vt 0.625000 0.500000
vt 0.375000 0.500000
vt 0.375000 0.750000
vt 0.625000 0.750000
vt 0.625000 0.750000
vt 0.375000 0.750000
vt 0.000000 0.000000
vt 0.625000 0.750000
vt 0.000000 0.000000
vt 0.375000 0.750000
vt 0.000000 0.000000
vt 0.625000 0.750000
vt 0.375000 0.750000
vt 0.625000 0.750000
vt 0.375000 0.750000
s 0
f 79/104/20 81/110/20 82/112/20 80/107/20
f 81/110/21 85/117/21 86/118/21 82/112/21
f 84/116/22 86/118/22 102/143/22 105/146/22
f 83/114/23 79/105/23 80/109/23 84/116/23
f 81/111/24 79/106/24 83/114/24 85/117/24
f 86/118/22 84/116/22 80/108/22 82/113/22
f 87/119/25 88/122/25 90/125/25 89/123/25
f 89/123/23 90/125/23 94/130/23 93/129/23
f 93/129/20 94/130/20 92/128/20 91/127/20
f 92/128/24 88/121/24 99/138/24 101/142/24
f 89/124/22 93/129/22 91/127/22 87/120/22
f 94/130/24 90/126/24 88/121/24 92/128/24
f 100/141/21 101/142/21 99/139/21 98/135/21
f 91/127/23 92/128/23 110/154/23 111/155/23
f 88/122/25 87/119/25 98/136/25 99/140/25
f 87/120/22 91/127/22 100/141/22 98/137/22
f 80/109/22 84/116/22 97/133/22 95/131/22
f 84/116/24 97/133/24 108/150/24 106/147/24
f 103/144/25 104/145/25 105/146/25 102/143/25
f 86/118/21 85/117/21 103/144/21 102/143/21
f 83/114/23 84/116/23 105/146/23 104/145/23
f 85/117/24 83/114/24 104/145/24 103/144/24
f 107/148/20 106/147/20 108/150/20 109/152/20
f 97/134/21 96/132/21 109/153/21 108/151/21
f 83/114/23 84/116/23 106/147/23 107/148/23
f 96/132/22 83/115/22 107/149/22 109/153/22
f 111/155/20 110/154/20 112/156/20 113/157/20
f 100/141/22 91/127/22 111/155/22 113/157/22
f 92/128/24 101/142/24 112/156/24 110/154/24
f 101/142/21 100/141/21 113/157/21 112/156/21
