# Blender 3.4.1
# www.blender.org
mtllib tableMat.mtl.mtl
o Cube.005
v 1.863559 -0.143173 -4.214649
v 1.863559 3.473293 -4.214649
v 1.767319 -0.239413 -4.436046
v 1.767319 3.569532 -4.436046
v 3.671079 -0.143173 -4.214649
v 3.671079 3.473293 -4.214649
v 3.767319 -0.239413 -4.436046
v 3.767319 3.569532 -4.436046
v 1.767319 -0.239413 -4.214649
v 1.767319 3.569532 -4.214649
v 3.767319 3.569532 -4.214649
v 3.767319 -0.239413 -4.214649
v 1.989794 -0.016938 -4.073957
v 1.989794 3.347057 -4.073957
v 3.544844 3.347057 -4.073957
v 3.544844 -0.016938 -4.073957
v 1.863559 -0.143173 -4.104558
v 1.863559 3.473293 -4.104558
v 3.671079 3.473293 -4.104558
v 3.671079 -0.143173 -4.104558
v 1.943262 -0.063470 -4.058395
v 1.943262 3.393589 -4.058395
v 3.591376 3.393589 -4.058395
v 3.591376 -0.063470 -4.058395
vn -1.0000 -0.0000 -0.0000
vn -0.0000 -0.0000 -1.0000
vn 1.0000 -0.0000 -0.0000
vn -0.0000 -1.0000 -0.0000
vn -0.0000 1.0000 -0.0000
vn -0.0000 -0.0000 1.0000
vn -0.5012 -0.0000 0.8653
vn 0.5012 -0.0000 0.8653
vn -0.0000 -0.5012 0.8653
vn -0.0000 0.5012 0.8653
vn 0.3172 -0.0000 0.9484
vn -0.3172 -0.0000 0.9484
vn -0.0000 0.3172 0.9484
vn -0.0000 -0.3172 0.9484
vt 0.381317 0.987970
vt 0.618683 0.987970
vt 0.375000 0.250000
vt 0.125000 0.500000
vt 0.625000 0.250000
vt 0.875000 0.500000
vt 0.381317 0.762030
vt 0.618683 0.762030
vt 0.375000 0.500000
vt 0.625000 0.500000
vt 0.375000 0.000000
vt 0.125000 0.750000
vt 0.375000 1.000000
vt 0.625000 0.000000
vt 0.875000 0.750000
vt 0.625000 1.000000
vt 0.625000 0.750000
vt 0.375000 0.750000
vt 0.389602 0.972191
vt 0.610398 0.972191
vt 0.610398 0.777809
vt 0.389602 0.777809
vt 0.381317 0.987970
vt 0.618683 0.987970
vt 0.618683 0.762030
vt 0.381317 0.762030
vt 0.386548 0.978007
vt 0.613452 0.978007
vt 0.613452 0.771993
vt 0.386548 0.771993
s 0
f 9/11/1 10/14/1 4/5/1 3/3/1
f 3/3/2 4/5/2 8/10/2 7/9/2
f 7/9/3 8/10/3 11/17/3 12/18/3
f 1/1/4 5/7/4 20/26/4 17/23/4
f 3/4/4 7/9/4 12/18/4 9/12/4
f 8/10/5 4/6/5 10/15/5 11/17/5
f 1/1/6 2/2/6 10/16/6 9/13/6
f 6/8/6 5/7/6 12/18/6 11/17/6
f 5/7/6 1/1/6 9/13/6 12/18/6
f 2/2/6 6/8/6 11/17/6 10/16/6
f 16/22/6 15/21/6 14/20/6 13/19/6
f 2/2/1 1/1/1 17/23/1 18/24/1
f 6/8/5 2/2/5 18/24/5 19/25/5
f 5/7/3 6/8/3 19/25/3 20/26/3
f 21/27/7 22/28/7 18/24/7 17/23/7
f 23/29/8 24/30/8 20/26/8 19/25/8
f 24/30/9 21/27/9 17/23/9 20/26/9
f 22/28/10 23/29/10 19/25/10 18/24/10
f 13/19/11 14/20/11 22/28/11 21/27/11
f 15/21/12 16/22/12 24/30/12 23/29/12
f 16/22/13 13/19/13 21/27/13 24/30/13
f 14/20/14 15/21/14 23/29/14 22/28/14
o Cube.008
v -3.452069 1.482336 2.703947
v -3.452069 1.473369 2.703947
v -3.452069 1.482336 0.311771
v -3.452069 1.473369 0.311771
v -2.670821 1.482336 2.703947
v -2.670821 1.473369 2.703947
v -2.670821 1.482336 0.311771
v -2.670821 1.473369 0.311771
vn 1.0000 -0.0000 -0.0000
vn -0.0000 -0.0000 1.0000
vn -1.0000 -0.0000 -0.0000
vn -0.0000 -0.0000 -1.0000
vn -0.0000 -1.0000 -0.0000
vn -0.0000 1.0000 -0.0000
vt 0.375000 0.000000
vt 0.375000 1.000000
vt 0.125000 0.750000
vt 0.625000 0.000000
vt 0.625000 1.000000
vt 0.875000 0.750000
vt 0.375000 0.250000
vt 0.125000 0.500000
vt 0.625000 0.250000
vt 0.875000 0.500000
vt 0.375000 0.750000
vt 0.625000 0.750000
vt 0.375000 0.500000
vt 0.625000 0.500000
s 0
usemtl Material.012
f 25/31/15 26/34/15 28/39/15 27/37/15
f 27/37/16 28/39/16 32/44/16 31/43/16
f 31/43/17 32/44/17 30/42/17 29/41/17
f 29/41/18 30/42/18 26/35/18 25/32/18
f 27/38/19 31/43/19 29/41/19 25/33/19
f 32/44/20 28/40/20 26/36/20 30/42/20
o Cube.015
v -4.153610 3.939181 2.993417
v -4.153610 3.981876 2.993417
v -4.153610 3.939181 0.993417
v -4.153610 3.981876 0.993417
v -3.495183 3.939181 2.993417
v -3.495183 3.981876 2.993417
v -3.495183 3.939181 0.993417
v -3.495183 3.981876 0.993417
v -4.081584 3.939181 0.993417
v -4.081584 3.981876 0.993417
v -4.081584 3.939181 2.993417
v -4.081584 3.981876 2.993417
v -4.144385 3.883889 0.993417
v -4.144385 3.883889 2.993417
v -4.090808 3.932028 0.993417
v -4.090808 3.932028 2.993417
vn -1.0000 -0.0000 -0.0000
vn -0.0000 -0.0000 -1.0000
vn 1.0000 -0.0000 -0.0000
vn -0.0000 -0.0000 1.0000
vn -0.0000 -1.0000 -0.0000
vn -0.0000 1.0000 -0.0000
vn 0.6683 -0.7439 -0.0000
vn 0.6128 -0.7903 -0.0000
vn -0.9864 -0.1646 -0.0000
vt 0.375000 1.000000
vt 0.375000 0.000000
vt 0.625000 0.000000
vt 0.625000 1.000000
vt 0.875000 0.750000
vt 0.375000 0.250000
vt 0.875000 0.500000
vt 0.625000 0.250000
vt 0.375000 0.750000
vt 0.625000 0.750000
vt 0.375000 0.500000
vt 0.625000 0.500000
vt 0.152348 0.500000
vt 0.375000 0.277348
vt 0.847652 0.500000
vt 0.625000 0.277348
vt 0.375000 0.972652
vt 0.152348 0.750000
vt 0.847652 0.750000
vt 0.625000 0.972652
vt 0.125000 0.500000
vt 0.375000 0.250000
vt 0.375000 1.000000
vt 0.125000 0.750000
vt 0.375000 0.000000
vt 0.152348 0.500000
vt 0.375000 0.277348
vt 0.375000 0.972652
vt 0.152348 0.750000
s 0
usemtl Material.002
f 33/46/21 34/47/21 36/52/21 35/50/21
f 41/58/22 42/60/22 40/56/22 39/55/22
f 39/55/23 40/56/23 38/54/23 37/53/23
f 43/61/24 44/64/24 34/48/24 33/45/24
f 41/57/25 39/55/25 37/53/25 43/62/25
f 42/59/26 36/51/26 34/49/26 44/63/26
f 40/56/26 42/59/26 44/63/26 38/54/26
f 43/61/24 33/45/24 46/67/24 48/72/24
f 37/53/24 38/54/24 44/64/24 43/61/24
f 35/50/22 36/52/22 42/60/22 41/58/22
f 41/57/28 43/62/28 48/73/28 47/70/28
f 35/50/22 41/58/22 47/71/22 45/66/22
f 33/46/29 35/50/29 45/66/29 46/69/29
usemtl Material.014
f 45/65/27 47/70/27 48/73/27 46/68/27
o Cube.013
v -4.153610 3.499681 1.134313
v -4.153610 3.542377 1.134313
v -4.153610 3.499681 -0.865687
v -4.153610 3.542377 -0.865687
v -3.495183 3.499681 1.134313
v -3.495183 3.542377 1.134313
v -3.495183 3.499681 -0.865687
v -3.495183 3.542377 -0.865687
v -4.081584 3.499681 -0.865687
v -4.081584 3.542377 -0.865687
v -4.081584 3.499681 1.134313
v -4.081584 3.542377 1.134313
v -4.144385 3.444390 -0.865687
v -4.144385 3.444390 1.134313
v -4.090808 3.492529 -0.865687
v -4.090808 3.492529 1.134313
vn -1.0000 -0.0000 -0.0000
vn -0.0000 -0.0000 -1.0000
vn 1.0000 -0.0000 -0.0000
vn -0.0000 -0.0000 1.0000
vn -0.0000 -1.0000 -0.0000
vn -0.0000 1.0000 -0.0000
vn 0.6683 -0.7439 -0.0000
vn 0.6128 -0.7903 -0.0000
vn -0.9864 -0.1646 -0.0000
vt 0.375000 1.000000
vt 0.375000 0.000000
vt 0.625000 0.000000
vt 0.625000 1.000000
vt 0.875000 0.750000
vt 0.375000 0.250000
vt 0.875000 0.500000
vt 0.625000 0.250000
vt 0.375000 0.750000
vt 0.625000 0.750000
vt 0.375000 0.500000
vt 0.625000 0.500000
vt 0.152348 0.500000
vt 0.375000 0.277348
vt 0.847652 0.500000
vt 0.625000 0.277348
vt 0.375000 0.972652
vt 0.152348 0.750000
vt 0.847652 0.750000
vt 0.625000 0.972652
vt 0.125000 0.500000
vt 0.375000 0.250000
vt 0.375000 1.000000
vt 0.125000 0.750000
vt 0.375000 0.000000
vt 0.152348 0.500000
vt 0.375000 0.277348
vt 0.375000 0.972652
vt 0.152348 0.750000
s 0
usemtl Material.002
f 49/75/30 50/76/30 52/81/30 51/79/30
f 57/87/31 58/89/31 56/85/31 55/84/31
f 55/84/32 56/85/32 54/83/32 53/82/32
f 59/90/33 60/93/33 50/77/33 49/74/33
f 57/86/34 55/84/34 53/82/34 59/91/34
f 58/88/35 52/80/35 50/78/35 60/92/35
f 56/85/35 58/88/35 60/92/35 54/83/35
f 59/90/33 49/74/33 62/96/33 64/101/33
f 53/82/33 54/83/33 60/93/33 59/90/33
f 51/79/31 52/81/31 58/89/31 57/87/31
f 57/86/37 59/91/37 64/102/37 63/99/37
f 51/79/31 57/87/31 63/100/31 61/95/31
f 49/75/38 51/79/38 61/95/38 62/98/38
usemtl Material.014
f 61/94/36 63/99/36 64/102/36 62/97/36
o Cube.014
v -4.153610 3.118299 -0.335389
v -4.153610 3.160994 -0.335389
v -4.153610 3.118299 -2.335389
v -4.153610 3.160994 -2.335389
v -3.495183 3.118299 -0.335389
v -3.495183 3.160994 -0.335389
v -3.495183 3.118299 -2.335389
v -3.495183 3.160994 -2.335389
v -4.081584 3.118299 -2.335389
v -4.081584 3.160994 -2.335389
v -4.081584 3.118299 -0.335389
v -4.081584 3.160994 -0.335389
v -4.144385 3.063007 -2.335389
v -4.144385 3.063007 -0.335389
v -4.090808 3.111146 -2.335389
v -4.090808 3.111146 -0.335389
vn -1.0000 -0.0000 -0.0000
vn -0.0000 -0.0000 -1.0000
vn 1.0000 -0.0000 -0.0000
vn -0.0000 -0.0000 1.0000
vn -0.0000 -1.0000 -0.0000
vn -0.0000 1.0000 -0.0000
vn 0.6683 -0.7439 -0.0000
vn 0.6128 -0.7903 -0.0000
vn -0.9864 -0.1646 -0.0000
vt 0.375000 1.000000
vt 0.375000 0.000000
vt 0.625000 0.000000
vt 0.625000 1.000000
vt 0.875000 0.750000
vt 0.375000 0.250000
vt 0.875000 0.500000
vt 0.625000 0.250000
vt 0.375000 0.750000
vt 0.625000 0.750000
vt 0.375000 0.500000
vt 0.625000 0.500000
vt 0.152348 0.500000
vt 0.375000 0.277348
vt 0.847652 0.500000
vt 0.625000 0.277348
vt 0.375000 0.972652
vt 0.152348 0.750000
vt 0.847652 0.750000
vt 0.625000 0.972652
vt 0.125000 0.500000
vt 0.375000 0.250000
vt 0.375000 1.000000
vt 0.125000 0.750000
vt 0.375000 0.000000
vt 0.152348 0.500000
vt 0.375000 0.277348
vt 0.375000 0.972652
vt 0.152348 0.750000
s 0
usemtl Material.002
f 65/104/39 66/105/39 68/110/39 67/108/39
f 73/116/40 74/118/40 72/114/40 71/113/40
f 71/113/41 72/114/41 70/112/41 69/111/41
f 75/119/42 76/122/42 66/106/42 65/103/42
f 73/115/43 71/113/43 69/111/43 75/120/43
f 74/117/44 68/109/44 66/107/44 76/121/44
f 72/114/44 74/117/44 76/121/44 70/112/44
f 75/119/42 65/103/42 78/125/42 80/130/42
f 69/111/42 70/112/42 76/122/42 75/119/42
f 67/108/40 68/110/40 74/118/40 73/116/40
f 73/115/46 75/120/46 80/131/46 79/128/46
f 67/108/40 73/116/40 79/129/40 77/124/40
f 65/104/47 67/108/47 77/124/47 78/127/47
usemtl Material.014
f 77/123/45 79/128/45 80/131/45 78/126/45
